<svg width="45" height="45" viewBox="0 0 45 45" fill="none" xmlns="http://www.w3.org/2000/svg">
<rect width="45" height="45" rx="10" fill="#0D1321"/>
<path d="M16.572 37.0001H11.2145C10.3623 36.9992 9.54523 36.6602 8.94261 36.0575C8.33998 35.4549 8.00099 34.6379 8 33.7856V22.5348C8.00099 21.6826 8.33998 20.8655 8.94261 20.2629C9.54523 19.6603 10.3623 19.3213 11.2145 19.3203H19.7866C20.6388 19.3213 21.4558 19.6603 22.0585 20.2629C22.6611 20.8655 23.0001 21.6826 23.0011 22.5348V30.5711C23.001 30.7132 22.9446 30.8494 22.8441 30.9499L16.9508 36.8432C16.8504 36.9437 16.7141 37.0001 16.572 37.0001ZM11.2145 20.3918C10.6463 20.3924 10.1016 20.6183 9.6998 21.0201C9.29804 21.4219 9.07207 21.9666 9.07151 22.5348V33.7856C9.07207 34.3538 9.29804 34.8986 9.6998 35.3003C10.1016 35.7021 10.6463 35.9281 11.2145 35.9286H16.3502L21.9296 30.3493V22.5348C21.929 21.9666 21.703 21.4219 21.3013 21.0201C20.8995 20.6183 20.3547 20.3924 19.7866 20.3918H11.2145Z" fill="#FFEDDF"/>
<path d="M16.5716 37.0023C16.4295 37.0023 16.2932 36.9458 16.1928 36.8453C16.0923 36.7449 16.0359 36.6086 16.0359 36.4665V33.252C16.0368 32.3998 16.3758 31.5827 16.9785 30.9801C17.5811 30.3775 18.3981 30.0385 19.2504 30.0375H22.4649C22.5708 30.0375 22.6744 30.0689 22.7625 30.1278C22.8506 30.1867 22.9192 30.2703 22.9598 30.3682C23.0003 30.4661 23.0109 30.5738 22.9902 30.6777C22.9696 30.7816 22.9186 30.8771 22.8437 30.952L16.9504 36.8453C16.8499 36.9458 16.7137 37.0022 16.5716 37.0023ZM19.2504 31.109C18.6822 31.1096 18.1374 31.3355 17.7357 31.7373C17.3339 32.1391 17.1079 32.6838 17.1074 33.252V35.1732L21.1716 31.109H19.2504ZM13.0892 26.823C12.5064 26.823 11.9367 26.6501 11.4522 26.3264C10.9676 26.0026 10.5899 25.5424 10.3669 25.004C10.1439 24.4655 10.0855 23.8731 10.1992 23.3015C10.3129 22.7299 10.5935 22.2048 11.0056 21.7927C11.4177 21.3806 11.9428 21.1 12.5144 20.9863C13.0859 20.8726 13.6784 20.931 14.2168 21.154C14.7553 21.377 15.2155 21.7547 15.5393 22.2393C15.863 22.7238 16.0359 23.2935 16.0359 23.8763C16.0349 24.6575 15.7241 25.4064 15.1717 25.9588C14.6193 26.5112 13.8704 26.822 13.0892 26.823ZM13.0892 22.0012C12.7184 22.0012 12.3558 22.1112 12.0474 22.3172C11.7391 22.5233 11.4987 22.8161 11.3568 23.1587C11.2149 23.5014 11.1778 23.8784 11.2501 24.2421C11.3225 24.6059 11.5011 24.94 11.7633 25.2022C12.0255 25.4645 12.3597 25.6431 12.7234 25.7154C13.0871 25.7878 13.4642 25.7506 13.8068 25.6087C14.1494 25.4668 14.4423 25.2265 14.6483 24.9181C14.8544 24.6097 14.9644 24.2472 14.9644 23.8763C14.9638 23.3792 14.766 22.9026 14.4145 22.551C14.063 22.1995 13.5864 22.0018 13.0892 22.0012Z" fill="#FFEDDF"/>
<path d="M13.3571 25.2164C13.2867 25.2164 13.2171 25.2026 13.1521 25.1756C13.0871 25.1487 13.028 25.1092 12.9783 25.0594L11.9068 23.9879C11.8092 23.8869 11.7552 23.7515 11.7564 23.6111C11.7577 23.4706 11.814 23.3362 11.9133 23.2369C12.0127 23.1376 12.147 23.0812 12.2875 23.08C12.428 23.0788 12.5633 23.1328 12.6644 23.2304L13.3212 23.8872L15.6239 21.1227C15.7149 21.0135 15.8456 20.9448 15.9872 20.9319C16.0573 20.9255 16.128 20.933 16.1952 20.9539C16.2625 20.9748 16.3249 21.0088 16.379 21.0539C16.4331 21.0989 16.4778 21.1542 16.5105 21.2166C16.5433 21.2789 16.5634 21.3471 16.5698 21.4172C16.5762 21.4873 16.5687 21.558 16.5478 21.6252C16.5269 21.6925 16.4929 21.7549 16.4479 21.809L13.7691 25.0235C13.7213 25.0808 13.6622 25.1274 13.5954 25.1605C13.5286 25.1937 13.4557 25.2125 13.3812 25.2159L13.3571 25.2164ZM19.7861 22.5376H17.6431C17.501 22.5376 17.3648 22.4812 17.2643 22.3807C17.1638 22.2803 17.1074 22.144 17.1074 22.0019C17.1074 21.8598 17.1638 21.7235 17.2643 21.6231C17.3648 21.5226 17.501 21.4661 17.6431 21.4661H19.7861C19.9282 21.4661 20.0645 21.5226 20.165 21.6231C20.2654 21.7235 20.3219 21.8598 20.3219 22.0019C20.3219 22.144 20.2654 22.2803 20.165 22.3807C20.0645 22.4812 19.9282 22.5376 19.7861 22.5376ZM20.3219 24.1449H17.1074C16.9653 24.1449 16.829 24.0885 16.7285 23.988C16.6281 23.8875 16.5716 23.7512 16.5716 23.6091C16.5716 23.4671 16.6281 23.3308 16.7285 23.2303C16.829 23.1298 16.9653 23.0734 17.1074 23.0734H20.3219C20.464 23.0734 20.6002 23.1298 20.7007 23.2303C20.8012 23.3308 20.8576 23.4671 20.8576 23.6091C20.8576 23.7512 20.8012 23.8875 20.7007 23.988C20.6002 24.0885 20.464 24.1449 20.3219 24.1449ZM13.0892 33.7884C12.5064 33.7884 11.9367 33.6156 11.4522 33.2918C10.9676 32.9681 10.5899 32.5079 10.3669 31.9694C10.1439 31.431 10.0855 30.8385 10.1992 30.2669C10.3129 29.6954 10.5935 29.1703 11.0056 28.7582C11.4177 28.3461 11.9428 28.0655 12.5144 27.9518C13.0859 27.8381 13.6784 27.8964 14.2168 28.1195C14.7553 28.3425 15.2155 28.7202 15.5393 29.2047C15.863 29.6893 16.0359 30.259 16.0359 30.8418C16.0349 31.623 15.7241 32.3719 15.1717 32.9243C14.6193 33.4767 13.8704 33.7875 13.0892 33.7884ZM13.0892 28.9667C12.7184 28.9667 12.3558 29.0766 12.0474 29.2827C11.7391 29.4887 11.4987 29.7816 11.3568 30.1242C11.2149 30.4669 11.1778 30.8439 11.2501 31.2076C11.3225 31.5714 11.5011 31.9055 11.7633 32.1677C12.0255 32.43 12.3597 32.6086 12.7234 32.6809C13.0871 32.7533 13.4642 32.7161 13.8068 32.5742C14.1494 32.4323 14.4423 32.1919 14.6483 31.8836C14.8544 31.5752 14.9644 31.2127 14.9644 30.8418C14.9638 30.3447 14.766 29.868 14.4145 29.5165C14.063 29.165 13.5864 28.9672 13.0892 28.9667ZM19.7861 29.5024H17.6431C17.501 29.5024 17.3648 29.446 17.2643 29.3455C17.1638 29.245 17.1074 29.1088 17.1074 28.9667C17.1074 28.8246 17.1638 28.6883 17.2643 28.5878C17.3648 28.4874 17.501 28.4309 17.6431 28.4309H19.7861C19.9282 28.4309 20.0645 28.4874 20.165 28.5878C20.2654 28.6883 20.3219 28.8246 20.3219 28.9667C20.3219 29.1088 20.2654 29.245 20.165 29.3455C20.0645 29.446 19.9282 29.5024 19.7861 29.5024Z" fill="#FFEDDF"/>
<path d="M26.7514 29.4995C25.9963 29.499 25.2431 29.4236 24.5029 29.2745C24.367 29.2431 24.2486 29.16 24.173 29.0428C24.0974 28.9256 24.0705 28.7835 24.098 28.6468C24.1255 28.5101 24.2052 28.3894 24.3202 28.3105C24.4353 28.2317 24.5765 28.2007 24.714 28.2244C25.3847 28.3595 26.0672 28.4277 26.7514 28.428C28.7432 28.4286 30.6913 27.8449 32.3546 26.7493C34.0178 25.6536 35.3231 24.094 36.1087 22.2638C36.8943 20.4336 37.1258 18.4131 36.7744 16.4526C36.4229 14.4922 35.5041 12.6779 34.1317 11.2345C32.7593 9.79107 30.9936 8.782 29.0533 8.33227C27.113 7.88253 25.0834 8.01188 23.2159 8.7043C21.3485 9.39672 19.7251 10.6218 18.5471 12.2277C17.369 13.8337 16.6879 15.7499 16.5882 17.7392C16.579 17.8804 16.5152 18.0124 16.4103 18.1074C16.3054 18.2024 16.1676 18.2529 16.0262 18.2481C15.9559 18.2447 15.887 18.2274 15.8234 18.1974C15.7598 18.1673 15.7027 18.125 15.6554 18.0728C15.6082 18.0207 15.5716 17.9598 15.5479 17.8935C15.5242 17.8272 15.5138 17.7569 15.5173 17.6867C15.6274 15.4884 16.38 13.3707 17.6819 11.5959C18.9838 9.82109 20.7777 8.4672 22.8414 7.7019C24.9051 6.9366 27.148 6.79351 29.2923 7.29036C31.4366 7.78721 33.3879 8.90217 34.9048 10.4971C36.4216 12.0921 37.4373 14.097 37.8259 16.2635C38.2145 18.4299 37.959 20.6628 37.0911 22.6856C36.2233 24.7083 34.7811 26.432 32.9432 27.6432C31.1053 28.8543 28.9525 29.4997 26.7514 29.4995Z" fill="#FFEDDF"/>
<path d="M26.7515 27.3562C25.9835 27.3574 25.2185 27.2616 24.4745 27.0712C24.4051 27.0549 24.3396 27.0248 24.2819 26.9829C24.2242 26.9409 24.1755 26.8878 24.1386 26.8267C24.1017 26.7657 24.0774 26.6979 24.067 26.6273C24.0567 26.5567 24.0606 26.4848 24.0784 26.4157C24.0962 26.3466 24.1277 26.2818 24.1709 26.225C24.2142 26.1683 24.2683 26.1207 24.3301 26.0852C24.392 26.0496 24.4603 26.0268 24.5311 26.018C24.6019 26.0092 24.6737 26.0146 24.7424 26.034C26.3447 26.4479 28.0357 26.3571 29.5846 25.7741C31.1334 25.1911 32.4645 24.1443 33.3962 22.7765C34.3279 21.4088 34.8148 19.7869 34.7903 18.1321C34.7658 16.4774 34.2312 14.8705 33.2595 13.531C32.2877 12.1914 30.9262 11.1844 29.3609 10.6474C27.7955 10.1105 26.1025 10.0698 24.5131 10.5308C22.9237 10.9919 21.5154 11.9323 20.4804 13.2236C19.4454 14.5149 18.8342 16.0942 18.7302 17.7459C18.7197 17.8864 18.6543 18.0172 18.548 18.1098C18.4418 18.2025 18.3034 18.2495 18.1627 18.2408C18.022 18.2321 17.8905 18.1682 17.7965 18.0632C17.7026 17.9581 17.6538 17.8202 17.6608 17.6795C17.7718 15.9058 18.3993 14.2034 19.4659 12.782C20.5325 11.3606 21.9916 10.2823 23.6635 9.67987C25.3353 9.07747 27.1469 8.97733 28.875 9.39179C30.6031 9.80625 32.1721 10.7172 33.3889 12.0124C34.6056 13.3076 35.4169 14.9305 35.7227 16.681C36.0286 18.4316 35.8156 20.2334 35.11 21.8644C34.4045 23.4955 33.2372 24.8845 31.752 25.8603C30.2668 26.8361 28.5286 27.3561 26.7515 27.3562Z" fill="#FFEDDF"/>
<path d="M26.7518 19.8551C26.4339 19.8551 26.1232 19.7609 25.8588 19.5843C25.5945 19.4077 25.3885 19.1566 25.2669 18.863C25.1452 18.5693 25.1134 18.2461 25.1754 17.9343C25.2374 17.6225 25.3905 17.3362 25.6153 17.1114C25.8401 16.8866 26.1265 16.7335 26.4382 16.6715C26.75 16.6095 27.0732 16.6413 27.3669 16.763C27.6605 16.8846 27.9116 17.0906 28.0882 17.3549C28.2648 17.6193 28.359 17.93 28.359 18.2479C28.3586 18.674 28.1891 19.0826 27.8878 19.3839C27.5865 19.6852 27.1779 19.8547 26.7518 19.8551ZM26.7518 17.7121C26.6458 17.7121 26.5422 17.7436 26.4541 17.8024C26.366 17.8613 26.2974 17.945 26.2568 18.0429C26.2163 18.1408 26.2057 18.2485 26.2263 18.3524C26.247 18.4563 26.298 18.5518 26.373 18.6267C26.4479 18.7016 26.5433 18.7527 26.6473 18.7733C26.7512 18.794 26.8589 18.7834 26.9568 18.7429C27.0547 18.7023 27.1384 18.6336 27.1973 18.5455C27.2561 18.4574 27.2875 18.3538 27.2875 18.2479C27.2874 18.1058 27.2309 17.9696 27.1305 17.8692C27.03 17.7688 26.8938 17.7123 26.7518 17.7121Z" fill="#FFEDDF"/>
<path d="M25.9935 18.0299C25.9231 18.03 25.8534 18.0162 25.7884 17.9892C25.7234 17.9623 25.6644 17.9228 25.6147 17.873L24.0996 16.3573C24.002 16.2563 23.948 16.1209 23.9492 15.9805C23.9505 15.84 24.0068 15.7056 24.1061 15.6063C24.2055 15.5069 24.3398 15.4506 24.4803 15.4494C24.6208 15.4482 24.7561 15.5022 24.8572 15.5998L26.3723 17.1154C26.4472 17.1903 26.4982 17.2858 26.5188 17.3897C26.5395 17.4936 26.5289 17.6013 26.4884 17.6992C26.4478 17.7971 26.3792 17.8807 26.2911 17.9396C26.203 17.9985 26.0994 18.0299 25.9935 18.0299ZM27.5086 18.0299C27.4027 18.0299 27.2991 17.9985 27.211 17.9396C27.1229 17.8807 27.0543 17.7971 27.0137 17.6992C26.9732 17.6013 26.9626 17.4936 26.9833 17.3897C27.0039 17.2858 27.0549 17.1903 27.1298 17.1154L30.5394 13.7059C30.6404 13.6083 30.7757 13.5543 30.9162 13.5555C31.0567 13.5567 31.1911 13.6131 31.2904 13.7124C31.3897 13.8117 31.4461 13.9461 31.4473 14.0866C31.4485 14.227 31.3945 14.3624 31.2969 14.4634L27.8874 17.873C27.8377 17.9228 27.7787 17.9623 27.7137 17.9892C27.6487 18.0162 27.579 18.03 27.5086 18.0299ZM26.7511 11.2869C26.609 11.2869 26.4727 11.2305 26.3722 11.13C26.2717 11.0296 26.2153 10.8933 26.2153 10.7512V10.2154C26.2153 10.0733 26.2717 9.93708 26.3722 9.83661C26.4727 9.73613 26.609 9.67969 26.7511 9.67969C26.8931 9.67969 27.0294 9.73613 27.1299 9.83661C27.2304 9.93708 27.2868 10.0733 27.2868 10.2154V10.7512C27.2868 10.8933 27.2304 11.0296 27.1299 11.13C27.0294 11.2305 26.8931 11.2869 26.7511 11.2869ZM26.7511 26.8238C26.609 26.8238 26.4727 26.7673 26.3722 26.6669C26.2717 26.5664 26.2153 26.4301 26.2153 26.288V25.7523C26.2153 25.6102 26.2717 25.4739 26.3722 25.3734C26.4727 25.273 26.609 25.2165 26.7511 25.2165C26.8931 25.2165 27.0294 25.273 27.1299 25.3734C27.2304 25.4739 27.2868 25.6102 27.2868 25.7523V26.288C27.2868 26.4301 27.2304 26.5664 27.1299 26.6669C27.0294 26.7673 26.8931 26.8238 26.7511 26.8238ZM34.7873 18.7875H34.2516C34.1095 18.7875 33.9732 18.731 33.8728 18.6306C33.7723 18.5301 33.7158 18.3938 33.7158 18.2517C33.7158 18.1096 33.7723 17.9734 33.8728 17.8729C33.9732 17.7724 34.1095 17.716 34.2516 17.716H34.7873C34.9294 17.716 35.0657 17.7724 35.1662 17.8729C35.2666 17.9734 35.3231 18.1096 35.3231 18.2517C35.3231 18.3938 35.2666 18.5301 35.1662 18.6306C35.0657 18.731 34.9294 18.7875 34.7873 18.7875Z" fill="#FFEDDF"/>
</svg>
